<?xml version="1.0" encoding="utf-8"?>
<!-- Generator: Adobe Illustrator 22.0.1, SVG Export Plug-In . SVG Version: 6.00 Build 0)  -->
<svg version="1.1" id="Слой_1" xmlns="http://www.w3.org/2000/svg" xmlns:xlink="http://www.w3.org/1999/xlink" x="0px" y="0px"
	 viewBox="0 0 100 100" style="enable-background:new 0 0 100 100;" xml:space="preserve">
<style type="text/css">
	.st0{stroke:#000000;stroke-width:1;stroke-miterlimit:10;}
</style>
<path class="st0" d="M50,5C25.2,5,5,25.2,5,50s20.2,45,45,45s45-20.2,45-45S74.8,5,50,5z M50,93C26.3,93,7,73.7,7,50S26.3,7,50,7
	s43,19.3,43,43S73.7,93,50,93z"/>
<path class="st0" d="M50,18.7c0.6,0,1-0.5,1-1v-6.9c0-0.6-0.5-1-1-1s-1,0.5-1,1v6.9C49,18.2,49.4,18.7,50,18.7z"/>
<path class="st0" d="M50,81.3c-0.6,0-1,0.5-1,1v6.9c0,0.6,0.5,1,1,1s1-0.5,1-1v-6.9C51,81.8,50.6,81.3,50,81.3z"/>
<path class="st0" d="M82.3,51h6.9c0.6,0,1-0.5,1-1s-0.5-1-1-1h-6.9c-0.6,0-1,0.5-1,1S81.8,51,82.3,51z"/>
<path class="st0" d="M17.7,49h-6.9c-0.6,0-1,0.5-1,1s0.5,1,1,1h6.9c0.6,0,1-0.5,1-1S18.2,49,17.7,49z"/>
<path class="st0" d="M74.7,32.2L52.1,47.4c-0.1-0.1-0.3-0.2-0.4-0.3c-1-0.6-2.1-0.6-3.1-0.1L36.8,34c-0.4-0.4-1-0.4-1.4-0.1
	c-0.4,0.4-0.4,1-0.1,1.4l11.8,13c0,0,0,0,0,0c-0.9,1.6-0.4,3.7,1.2,4.6c1.6,0.9,3.7,0.4,4.6-1.2c0.5-0.8,0.6-1.8,0.3-2.6l22.6-15.2
	c0.5-0.3,0.6-0.9,0.3-1.4C75.8,32,75.1,31.9,74.7,32.2z"/>
</svg>
