<svg width="100" height="100" xmlns="http://www.w3.org/2000/svg">
 <style type="text/css">.st0{stroke:#000000;stroke-width:2;stroke-miterlimit:10;}</style>

 <g>
  <title>background</title>
  <rect fill="none" id="canvas_background" height="102" width="102" y="-1" x="-1"/>
 </g>
 <g>
  <title>Layer 1</title>
  <path id="svg_1" d="m51,6c-24.8,0 -45,20.2 -45,45s20.2,45 45,45s45,-20.2 45,-45s-20.2,-45 -45,-45zm0,88c-23.7,0 -43,-19.3 -43,-43s19.3,-43 43,-43s43,19.3 43,43s-19.3,43 -43,43z" class="st0"/>
  <path id="svg_2" d="m51,19.7c0.6,0 1,-0.5 1,-1l0,-6.9c0,-0.6 -0.5,-1 -1,-1s-1,0.5 -1,1l0,6.9c0,0.5 0.4,1 1,1z" class="st0"/>
  <path id="svg_3" d="m51,82.3c-0.6,0 -1,0.5 -1,1l0,6.9c0,0.6 0.5,1 1,1s1,-0.5 1,-1l0,-6.9c0,-0.5 -0.4,-1 -1,-1z" class="st0"/>
  <path id="svg_4" d="m83.3,52l6.9,0c0.6,0 1,-0.5 1,-1s-0.5,-1 -1,-1l-6.9,0c-0.6,0 -1,0.5 -1,1s0.5,1 1,1z" class="st0"/>
  <path id="svg_5" d="m18.7,50l-6.9,0c-0.6,0 -1,0.5 -1,1s0.5,1 1,1l6.9,0c0.6,0 1,-0.5 1,-1s-0.5,-1 -1,-1z" class="st0"/>
  <path id="svg_6" d="m75.7,33.2l-22.6,15.2c-0.1,-0.1 -0.3,-0.2 -0.4,-0.3c-1,-0.6 -2.1,-0.6 -3.1,-0.1l-11.8,-13c-0.4,-0.4 -1,-0.4 -1.4,-0.1c-0.4,0.4 -0.4,1 -0.1,1.4l11.8,13c0,0 0,0 0,0c-0.9,1.6 -0.4,3.7 1.2,4.6c1.6,0.9 3.7,0.4 4.6,-1.2c0.5,-0.8 0.6,-1.8 0.3,-2.6l22.6,-15.2c0.5,-0.3 0.6,-0.9 0.3,-1.4c-0.3,-0.5 -1,-0.6 -1.4,-0.3z" class="st0"/>
 </g>
</svg>