<svg version="1.1" id="Capa_1" xmlns="http://www.w3.org/2000/svg" xmlns:xlink="http://www.w3.org/1999/xlink" fill="#8b8b8b"
        x="0px" y="0px" viewBox="0 0 483.29999 483.29999" xml:space="preserve">
        <path d="M424.29999,57.74998H59.1c-32.6,0-59.1,26.5-59.1,59.09999v249.60001c0,32.60001,26.5,59.10001,59.1,59.10001h365.10001
                c32.60001,0,59.10001-26.5,59.10001-59.10001v-249.5C483.39999,84.34998,456.89999,57.74998,424.29999,57.74998z
                M456.39999,366.44998c0,17.70001-14.39999,32.10001-32.10001,32.10001H59.1c-17.7,0-32.1-14.39999-32.1-32.10001v-249.5
                c0-17.7,14.4-32.1,32.1-32.1h365.10001c17.70001,0,32.10001,14.4,32.10001,32.1v249.5H456.39999z"></path>
        <path d="M304.79999,238.54999l118.20001-106c5.5-5.00001,6-13.50001,1-19.10001c-5-5.5-13.5-6-19.10001-1l-163,146.29999
                l-31.8-28.39998c-0.10001-0.10001-0.2-0.2-0.2-0.3c-0.7-0.7-1.39999-1.3-2.2-1.89999L78.3,112.34998c-5.6-5-14.1-4.5-19.1,1.1
                s-4.5,14.1,1.1,19.10001L179.89999,239.45L60.8,350.94998c-5.4,5.10001-5.7,13.60001-0.6,19.10001
                c2.7,2.79999,6.3,4.29999,9.9,4.29999c3.3,0,6.6-1.20001,9.2-3.60001l120.9-113.10001l32.8,29.29999
                c2.60001,2.29999,5.8,3.39999,9,3.39999s6.5-1.20001,9-3.5l33.70001-30.20001l120.20001,114.20001
                c2.60001,2.5,6,3.70001,9.29999,3.70001c3.60001,0,7.10001-1.39999,9.79999-4.20001c5.10001-5.39999,4.89999-14-0.5-19.10001
                L304.79999,238.54999z"></path>
    </svg>