<svg version="1.1" id="Capa_1" xmlns="http://www.w3.org/2000/svg" xmlns:xlink="http://www.w3.org/1999/xlink" fill="#909193"
        x="0px" y="0px" viewBox="0 0 473.806 473.806" xml:space="preserve">
        <path d="M374.45599,293.50598c-9.70001-10.10001-21.39999-15.5-33.79999-15.5c-12.29999,0-24.10001,5.29999-34.20001,15.39999
                l-31.60001,31.5c-2.60001-1.39999-5.20001-2.70001-7.70001-4c-3.60001-1.79999-7-3.5-9.89999-5.29999
                c-29.60001-18.79999-56.5-43.29999-82.3-74.99998c-12.5-15.8-20.89999-29.10001-27-42.60001c8.2-7.5,15.8-15.3,23.2-22.8
                c2.8-2.8,5.60001-5.7,8.39999-8.5c21-21,21-48.2,0-69.2l-27.3-27.3c-3.10001-3.1-6.3-6.3-9.3-9.5c-6-6.2-12.3-12.6-18.8-18.6
                c-9.7-9.6-21.3-14.7-33.5-14.7s-24,5.1-34,14.7c-0.1,0.1-0.1,0.1-0.2,0.2l-34,34.3c-12.8,12.8-20.1,28.4-21.7,46.5
                c-2.4,29.20001,6.2,56.40001,12.8,74.2c16.2,43.7,40.4,84.19997,76.5,127.59999
                c43.8,52.29999,96.50001,93.60001,156.69998,122.70001c23,10.89999,53.70001,23.79999,88,26
                c2.10001,0.10001,4.29999,0.20001,6.29999,0.20001c23.10001,0,42.5-8.29999,57.70001-24.79999
                c0.10001-0.20001,0.29999-0.29999,0.39999-0.5c5.20001-6.29999,11.20001-12,17.5-18.10001
                c4.29999-4.10001,8.70001-8.39999,13-12.89999c9.89999-10.29999,15.10001-22.29999,15.10001-34.60001
                c0-12.39999-5.29999-24.29999-15.39999-34.29999L374.45599,293.50598z M410.25601,398.80597
                C410.15601,398.80597,410.15601,398.90598,410.25601,398.80597c-3.89999,4.20001-7.89999,8-12.20001,12.20001
                c-6.5,6.20001-13.10001,12.70001-19.29999,20c-10.10001,10.79999-22,15.89999-37.60001,15.89999c-1.5,0-3.10001,0-4.60001-0.10001
                c-29.70001-1.89999-57.29999-13.5-78-23.39999c-56.60001-27.39999-106.3-66.29999-147.60001-115.60001
                c-34.1-41.10001-56.9-79.09999-72-119.89998c-9.3-24.89999-12.7-44.3-11.2-62.60001c1-11.7,5.5-21.4,13.8-29.7l34.1-34.09999
                c4.9-4.6,10.1-7.1,15.2-7.1c6.3,0,11.4,3.8,14.6,7c0.1,0.1,0.2,0.2,0.3,0.3c6.1,5.7,11.9,11.6,18,17.89999
                c3.1,3.2,6.3,6.4,9.49999,9.7l27.3,27.3c10.60001,10.6,10.60001,20.4,0,31.00001c-2.89999,2.89999-5.7,5.8-8.60001,8.60001
                c-8.39999,8.60001-16.39999,16.60001-25.1,24.39999c-0.2,0.2-0.4,0.3-0.5,0.5c-8.6,8.60001-7,17-5.2,22.7
                c0.1,0.3,0.2,0.60001,0.3,0.89999c7.1,17.2,17.1,33.39999,32.3,52.7l0.10001,0.10001c27.60001,34,56.7,60.5,88.8,80.80002
                c4.10001,2.60001,8.3,4.70001,12.3,6.70001c3.60001,1.79999,7,3.5,9.89999,5.29999c0.39999,0.20001,0.79999,0.5,1.20001,0.70001
                c3.39999,1.70001,6.60001,2.5,9.89999,2.5c8.29999,0,13.5-5.20001,15.20001-6.89999l34.20001-34.20001
                c3.39999-3.39999,8.79999-7.5,15.10001-7.5c6.20001,0,11.29999,3.89999,14.39999,7.29999
                c0.10001,0.10001,0.10001,0.10001,0.20001,0.20001l55.10001,55.10001
                C420.45599,377.70596,420.45599,388.20596,410.25601,398.80597z"></path>
        <path d="M256.056,112.70598c26.20001,4.4,50,16.8,69,35.8s31.29999,42.8,35.79999,69c1.10001,6.60001,6.79999,11.2,13.29999,11.2
                c0.79999,0,1.5-0.10001,2.29999-0.2c7.39999-1.2,12.29999-8.2,11.10001-15.60001c-5.39999-31.7-20.39999-60.59999-43.29999-83.5
                s-51.79999-37.90001-83.5-43.30001c-7.39999-1.2-14.3,3.7-15.60001,11S248.65601,111.50597,256.056,112.70598z"></path>
        <path d="M473.25601,209.00598c-8.89999-52.2-33.5-99.7-71.30002-137.5s-85.29999-62.4-137.5-71.3c-7.29999-1.3-14.2,3.7-15.5,11
                c-1.2,7.4,3.7,14.3,11.10001,15.6c46.60001,7.9,89.10001,30,122.89999,63.7c33.79999,33.8,55.79999,76.30001,63.70001,122.90002
                c1.10001,6.60001,6.79999,11.2,13.29999,11.2c0.79999,0,1.5-0.10001,2.29999-0.2
                C469.556,223.30598,474.556,216.30598,473.25601,209.00598z"></path>
    </svg>