<svg version="1.1" id="Capa_1" xmlns="http://www.w3.org/2000/svg" xmlns:xlink="http://www.w3.org/1999/xlink" x="0px" y="0px" fill="#fff"
     viewBox="0 0 512 512" xml:space="preserve">
        <path d="M406.00098,507.99936c-1.68359,0-3.35938-0.47168-4.82227-1.40039L222.30713,393.12143l-78.03125,107.1748
                c-2.28174,3.13672-6.31592,4.45801-10.01025,3.27734c-3.69434-1.17773-6.21875-4.58984-6.26514-8.4668l-1.94141-163.08691
                L15.22412,262.62729c-2.75586-1.72559-4.36719-4.80273-4.21436-8.05077c0.15283-3.24805,2.0459-6.16113,4.95166-7.62012
                l476.00049-239c3.05371-1.53516,6.71582-1.20459,9.44727,0.8501c2.73242,2.05518,4.06445,5.48047,3.43848,8.84131l-90,483
                c-0.54688,2.9375-2.51562,5.41113-5.25488,6.60352C408.44238,507.75229,407.21875,507.99936,406.00098,507.99936z
                M233.06641,378.63022l166.52246,105.64355l80.57129-432.3999L233.06641,378.63022z M144.04932,331.08334l1.62744,136.70801
                l66.93945-91.94043c0.08545-0.12598,0.1748-0.25098,0.26758-0.37402L437.82031,78.02183L144.04932,331.08334z M38.33838,255.86266
                l95.81445,59.98827L434.9873,56.70445L38.33838,255.86266z"></path>
    </svg>